<?xml version="1.0" standalone="no"?>
<!DOCTYPE svg PUBLIC "-//W3C//DTD SVG 20010904//EN"
 "http://www.w3.org/TR/2001/REC-SVG-20010904/DTD/svg10.dtd">
<svg version="1.0" xmlns="http://www.w3.org/2000/svg"
 width="667.000000pt" height="667.000000pt" viewBox="0 0 667.000000 667.000000"
 preserveAspectRatio="xMidYMid meet">
<metadata>
Created by potrace 1.11, written by Peter Selinger 2001-2013
</metadata>
<g transform="translate(0.000000,667.000000) scale(0.100000,-0.100000)"
fill="#000000" stroke="none">
<path d="M3100 6664 c-713 -65 -1285 -286 -1829 -706 -137 -106 -453 -422
-559 -559 -382 -495 -606 -1031 -689 -1654 -21 -160 -24 -628 -5 -775 59 -451
157 -774 349 -1152 364 -717 986 -1283 1738 -1581 671 -267 1422 -306 2129
-111 1107 305 2005 1203 2310 2310 195 707 156 1458 -111 2129 -298 752 -864
1374 -1581 1738 -365 185 -692 287 -1102 342 -110 15 -552 28 -650 19z m490
-1659 l0 -235 -230 0 -230 0 0 -1390 0 -1390 570 0 570 0 0 630 0 630 265 0
265 0 0 -865 0 -865 -1365 0 -1365 0 0 235 0 235 240 0 240 0 0 1390 0 1390
-240 0 -240 0 0 235 0 235 760 0 760 0 0 -235z"/>
</g>
</svg>
